<svg width="184" height="27" viewBox="0 0 184 27" fill="none" xmlns="http://www.w3.org/2000/svg">
<path fill-rule="evenodd" clip-rule="evenodd" d="M19.3431 1.29607C19.2967 1.15763 19.2271 1.04227 19.1575 0.949981C19.0879 0.857692 18.9951 0.788475 18.8791 0.719258C18.8095 0.673114 18.6935 0.650042 18.5775 0.673114L10.4458 1.27299C10.3066 1.27299 10.1442 1.34221 10.0282 1.41143C9.91224 1.48064 9.79624 1.59601 9.70344 1.71137C9.61064 1.8498 9.56424 1.98823 9.51784 2.14974C9.47144 2.31125 9.47144 2.47275 9.49464 2.65733L10.6082 11.4652C10.6314 11.6267 10.6082 11.7651 10.585 11.9035C10.5618 12.042 10.4922 12.1804 10.4226 12.3189C10.353 12.4342 10.237 12.5496 10.121 12.6419C10.005 12.7342 9.86584 12.8034 9.72664 12.8264L1.102 15.0183C0.916404 15.0645 0.754003 15.1337 0.614803 15.249C0.475602 15.3644 0.336401 15.4798 0.243601 15.6182C0.150801 15.7566 0.0812004 15.9181 0.0348002 16.0796C-0.0116001 16.2411 -0.0116001 16.4257 0.0348002 16.5872L2.23881 26.018C2.26201 26.1565 2.33161 26.2718 2.42441 26.3641C2.51721 26.4564 2.63321 26.5256 2.74921 26.5718C2.86521 26.6179 3.02761 26.641 3.16681 26.6179C3.30601 26.6179 3.46842 26.5718 3.63082 26.5025L12.2091 22.834C12.3251 22.7879 12.4411 22.7187 12.5339 22.6264C12.6267 22.5341 12.7195 22.4418 12.7891 22.3265C12.8587 22.2111 12.9051 22.0957 12.9515 21.9573C12.9747 21.8419 12.9979 21.7035 12.9747 21.5881L12.1627 14.5569C12.1395 14.4184 12.1627 14.28 12.1859 14.1416C12.2091 14.0031 12.2787 13.8647 12.3483 13.7493C12.4179 13.634 12.5107 13.5186 12.6267 13.4494C12.7427 13.3571 12.8587 13.311 12.9747 13.2648L19.0705 11.5805C19.1633 11.5575 19.2793 11.4882 19.3489 11.419C19.4417 11.3498 19.5113 11.2575 19.5809 11.1652C19.6505 11.0729 19.6969 10.9345 19.7201 10.8192C19.7433 10.7038 19.7665 10.5654 19.7665 10.45L19.4185 1.71137C19.4127 1.57293 19.3895 1.41143 19.3431 1.29607ZM85.8926 5.37408H88.433V21.8073H85.8926V5.37408ZM39.388 10.1097H41.9284V21.8131H39.388V10.1097ZM95.4684 14.828L95.4468 14.8219C94.2148 14.4784 93.1542 14.1827 93.1542 13.334C93.1542 12.44 94.0648 12.1285 94.842 12.1285C95.857 12.1285 96.6284 12.5957 97.0228 13.4436L97.0402 13.4782L99.2384 12.2496L99.221 12.2208C98.3916 10.6634 96.7908 9.76936 94.8362 9.76936C92.2784 9.76936 90.4978 11.2575 90.4978 13.3859C90.4978 15.8662 92.7192 16.4949 94.4998 16.9968C95.7468 17.3486 96.8256 17.6543 96.8256 18.4907C96.8256 19.6039 95.5902 19.7712 94.8594 19.7712C93.595 19.7712 92.6554 19.1655 92.2784 18.11L92.2668 18.0754L90.0164 19.3732L90.028 19.402C90.811 21.1555 92.5742 22.1592 94.8594 22.1592C97.626 22.1592 99.482 20.6999 99.482 18.5195C99.482 15.9425 97.257 15.3246 95.471 14.8287L95.4684 14.828ZM179.965 14.8219L179.986 14.828L179.989 14.8287C181.775 15.3246 184 15.9425 184 18.5195C184 20.6999 182.144 22.1592 179.377 22.1592C177.092 22.1592 175.329 21.1555 174.546 19.402L174.534 19.3732L176.785 18.0754L176.796 18.11C177.173 19.1655 178.113 19.7712 179.377 19.7712C180.108 19.7712 181.344 19.6039 181.344 18.4907C181.344 17.6543 180.265 17.3486 179.018 16.9968C177.237 16.4949 175.016 15.8662 175.016 13.3859C175.016 11.2575 176.796 9.76936 179.354 9.76936C181.309 9.76936 182.91 10.6634 183.739 12.2208L183.756 12.2496L181.558 13.4782L181.541 13.4436C181.146 12.5957 180.375 12.1285 179.36 12.1285C178.583 12.1285 177.672 12.44 177.672 13.334C177.672 14.1827 178.733 14.4784 179.965 14.8219ZM154.837 9.80397C151.404 9.80397 148.626 12.4746 148.626 15.9585C148.626 19.4251 151.404 22.113 154.837 22.113C158.3 22.113 161.049 19.4193 161.049 15.9585C161.049 12.4688 158.294 9.80397 154.837 9.80397ZM154.837 19.6558C152.767 19.6558 151.166 18.0869 151.166 15.9585C151.166 13.8301 152.767 12.2612 154.837 12.2612C156.908 12.2612 158.509 13.8301 158.509 15.9585C158.509 18.0869 156.908 19.6558 154.837 19.6558ZM58.615 10.1097H61.1555V21.8131H58.615V10.1097ZM41.9284 5.42603H39.388V7.95245H41.9284V5.42603ZM58.615 5.42603H61.1555V7.95245H58.615V5.42603ZM30.8504 9.62516C32.2424 9.62516 33.53 10.0866 34.5682 10.8595V5.47215H37.1086V21.7958H34.5682V21.0229C33.5242 21.7958 32.2424 22.2572 30.8504 22.2572C27.3936 22.2572 24.5922 19.4309 24.5922 15.9412C24.5922 12.4515 27.3936 9.62516 30.8504 9.62516ZM27.1326 15.9412C27.1326 18.0177 28.7914 19.6962 30.833 19.6962C32.8746 19.6962 34.5334 18.0177 34.5334 15.9412C34.5334 13.8647 32.8804 12.1862 30.833 12.1862C28.7856 12.1862 27.1326 13.8647 27.1326 15.9412ZM80.8176 10.8768C79.7794 10.1039 78.4918 9.64246 77.0998 9.64246C73.643 9.64246 70.8415 12.4688 70.8415 15.9585C70.8415 19.4482 73.643 22.2745 77.0998 22.2745C78.4918 22.2745 79.7736 21.8131 80.8176 21.0402V21.8131H83.358V10.1097H80.8176V10.8768ZM77.0824 19.7077C75.0408 19.7077 73.3819 18.0292 73.3819 15.9527C73.3819 13.8762 75.035 12.1977 77.0824 12.1977C79.124 12.1977 80.7828 13.8762 80.7828 15.9527C80.7828 18.0292 79.124 19.7077 77.0824 19.7077ZM53.8938 10.9073C52.8509 10.1657 51.5654 9.72899 50.1702 9.72899C46.7076 9.72899 43.9004 12.4342 43.9004 15.7682C43.9004 19.1021 46.7076 21.8073 50.1702 21.8073C51.568 21.8073 52.8556 21.369 53.8996 20.6249C53.8996 22.6033 52.3104 24.2126 50.3442 24.2126C49.3756 24.2126 48.494 23.8204 47.8502 23.1801L46.0174 25.0029C47.1252 26.0296 48.6158 26.6641 50.263 26.6641C53.6676 26.6641 56.4343 23.9588 56.4343 20.6249V10.1443H53.8938V10.9073ZM46.638 15.7624C46.638 17.7466 48.262 19.3501 50.2688 19.3501C52.2756 19.3501 53.8996 17.7408 53.8996 15.7624C53.8996 13.7782 52.2756 12.1747 50.2688 12.1747C48.262 12.1747 46.638 13.7839 46.638 15.7624ZM130.889 10.8768C129.845 10.1328 128.558 9.69438 127.16 9.69438C123.697 9.69438 120.89 12.3996 120.89 15.7336C120.89 19.0675 123.697 21.7727 127.16 21.7727C128.558 21.7727 129.845 21.3343 130.889 20.5903C130.889 22.5687 129.3 24.178 127.334 24.178C126.365 24.178 125.484 23.7858 124.846 23.1455L123.013 24.9682C124.121 25.9949 125.611 26.6294 127.258 26.6294C130.663 26.6294 133.43 23.9242 133.43 20.5903V10.1097H130.889V10.8768ZM127.253 19.3155C125.246 19.3155 123.622 17.712 123.622 15.7278C123.622 13.7493 125.246 12.14 127.253 12.14C129.259 12.14 130.883 13.7436 130.883 15.7278C130.889 17.712 129.259 19.3155 127.253 19.3155ZM106.488 19.7481C108.083 19.7481 109.475 18.3465 109.475 16.7891H109.481V10.1097H112.022V16.7891V21.8073H109.481V20.6595C108.779 21.715 107.271 22.1015 106.21 22.1015C103.095 22.113 101.315 20.5326 101.315 16.7891V10.1097H103.855V16.7891C103.745 18.658 104.743 19.7481 106.488 19.7481ZM168.23 9.81553C167.168 9.81553 165.66 10.202 164.959 11.2575V10.1097H162.418V15.1279V21.8073H164.959V15.1279C164.959 13.5705 166.351 12.1689 167.946 12.1689C169.691 12.1689 170.689 13.2591 170.579 15.1279V21.8073H173.119V15.1279C173.125 11.3787 171.344 9.80399 168.23 9.81553ZM116.586 10.1039V11.2518C117.288 10.202 118.796 9.81551 119.857 9.81551H119.858C119.979 9.81551 120.095 9.81551 120.211 9.82127V12.44C120.008 12.4054 119.799 12.3881 119.573 12.3881C117.978 12.3881 116.586 13.7897 116.586 15.3471V21.8016H114.046V15.1221V10.1039H116.586ZM141.208 9.80397C137.513 9.80397 134.996 12.4977 134.996 15.9585C134.996 19.4713 137.513 22.113 141.399 22.113C143.145 22.113 144.577 21.5651 145.645 20.6076L143.945 18.9175C143.342 19.4424 142.484 19.7943 141.422 19.7943C139.537 19.7943 138.058 18.8598 137.658 17.0314H147.025C147.071 16.7026 147.118 16.3277 147.118 15.9758C147.118 12.613 144.717 9.80397 141.208 9.80397ZM137.693 14.7241C138.116 13.1148 139.375 12.0939 141.184 12.0939C142.646 12.0939 144.067 12.8899 144.496 14.7241H137.693ZM66.596 7.5775V7.64671H66.6018V10.1039H69.5192V12.538H66.6018V18.1561C66.6018 19.6501 67.5878 19.627 69.5192 19.5347V21.8073C65.6158 22.2746 64.0614 21.2017 64.0614 18.1561V12.538H62.8433V10.1039H64.0556L66.596 7.5775Z" fill="white"/>
</svg>
