<svg xmlns="http://www.w3.org/2000/svg" version="1.1" xmlns:xlink="http://www.w3.org/1999/xlink" xmlns:svgjs="http://svgjs.dev/svgjs" width="1500" height="1500" viewBox="0 0 1500 1500"><rect width="1500" height="1500" fill="#000000"></rect><g transform="matrix(0.6666666666666666,0,0,0.6666666666666666,249.39393939393938,656.5512046736839)"><svg viewBox="0 0 396 74" data-background-color="#000000" preserveAspectRatio="xMidYMid meet" height="280" width="1500" xmlns="http://www.w3.org/2000/svg" xmlns:xlink="http://www.w3.org/1999/xlink"><g id="tight-bounds" transform="matrix(1,0,0,1,0.2400000000000091,0.045772432932466245)"><svg viewBox="0 0 395.52 73.90845513413507" height="73.90845513413507" width="395.52"><g><svg viewBox="0 0 395.52 73.90845513413507" height="73.90845513413507" width="395.52"><g><svg viewBox="0 0 395.52 73.90845513413507" height="73.90845513413507" width="395.52"><g id="textblocktransform"><svg viewBox="0 0 395.52 73.90845513413507" height="73.90845513413507" width="395.52" id="textblock"><g><svg viewBox="0 0 395.52 73.90845513413507" height="73.90845513413507" width="395.52"><g transform="matrix(1,0,0,1,0,0)"><svg width="395.52" viewBox="2.6 -39.65 216.18 40.4" height="73.90845513413507" data-palette-color="#ffffff"><path d="M8.45 0.75Q5.75 0.75 4.17-0.93 2.6-2.6 2.6-5.4L2.6-5.4 2.6-37.05 8.75-37.7 8.75-5.65Q8.75-5 9.05-4.6 9.35-4.2 9.95-4.2L9.95-4.2Q10.3-4.2 10.63-4.3 10.95-4.4 11.05-4.4L11.05-4.4 12.25-0.2Q10.55 0.75 8.45 0.75L8.45 0.75ZM33.45-26.45L33.45 0 28.1 0 27.8-3.35Q26.55-1.3 25-0.28 23.45 0.75 21.4 0.75L21.4 0.75Q18.5 0.75 16.82-1.3 15.15-3.35 15.15-6.65L15.15-6.65 15.15-26.45 21.3-26.45 21.3-7Q21.3-3.9 23.4-3.9L23.4-3.9Q24.6-3.9 25.55-4.83 26.5-5.75 27.3-7.45L27.3-7.45 27.3-26.45 33.45-26.45ZM62.8-27.15Q65.45-27.15 67.05-25.1 68.65-23.05 68.65-19.6L68.65-19.6 68.65 0 62.59 0 62.59-18.95Q62.59-20.85 62.09-21.68 61.59-22.5 60.65-22.5L60.65-22.5Q58.7-22.5 56.9-18.8L56.9-18.8 56.9 0 50.9 0 50.9-18.95Q50.9-22.5 49-22.5L49-22.5Q46.95-22.5 45.2-18.8L45.2-18.8 45.2 0 39.15 0 39.15-26.45 44.5-26.45 44.9-23.05Q47.5-27.15 51.15-27.15L51.15-27.15Q53-27.15 54.34-26 55.7-24.85 56.4-22.75L56.4-22.75Q59.05-27.15 62.8-27.15L62.8-27.15ZM74.14-26.45L80.29-26.45 80.29 0 74.14 0 74.14-26.45ZM77.19-39.65Q78.84-39.65 79.87-38.6 80.89-37.55 80.89-35.9L80.89-35.9Q80.89-34.3 79.87-33.25 78.84-32.2 77.19-32.2L77.19-32.2Q75.54-32.2 74.52-33.25 73.49-34.3 73.49-35.9L73.49-35.9Q73.49-37.55 74.52-38.6 75.54-39.65 77.19-39.65L77.19-39.65ZM95.39-27.15Q100.39-27.15 103.17-23.65 105.94-20.15 105.94-13.25L105.94-13.25Q105.94-6.65 103.14-2.95 100.34 0.75 95.39 0.75L95.39 0.75Q90.44 0.75 87.64-2.88 84.84-6.5 84.84-13.25L84.84-13.25Q84.84-19.95 87.64-23.55 90.44-27.15 95.39-27.15L95.39-27.15ZM95.39-22.5Q93.24-22.5 92.24-20.38 91.24-18.25 91.24-13.25L91.24-13.25Q91.24-8.2 92.24-6.08 93.24-3.95 95.39-3.95L95.39-3.95Q97.54-3.95 98.54-6.08 99.54-8.2 99.54-13.25L99.54-13.25Q99.54-18.3 98.54-20.4 97.54-22.5 95.39-22.5L95.39-22.5ZM122.84-27.15Q125.69-27.15 127.34-25.1 128.99-23.05 128.99-19.6L128.99-19.6 128.99 0 122.84 0 122.84-18.9Q122.84-20.8 122.31-21.63 121.79-22.45 120.79-22.45L120.79-22.45Q118.69-22.45 116.64-18.5L116.64-18.5 116.64 0 110.49 0 110.49-26.45 115.84-26.45 116.29-23Q117.64-25.1 119.16-26.13 120.69-27.15 122.84-27.15L122.84-27.15ZM153.39-13.85Q153.39-13.4 153.24-11.3L153.24-11.3 139.59-11.3Q139.79-7.2 141.01-5.58 142.24-3.95 144.49-3.95L144.49-3.95Q146.04-3.95 147.29-4.48 148.54-5 149.99-6.15L149.99-6.15 152.54-2.65Q149.04 0.75 144.14 0.75L144.14 0.75Q138.94 0.75 136.16-2.85 133.39-6.45 133.39-13L133.39-13Q133.39-19.55 136.04-23.35 138.69-27.15 143.54-27.15L143.54-27.15Q148.19-27.15 150.79-23.78 153.39-20.4 153.39-13.85L153.39-13.85ZM147.39-15.3L147.39-15.65Q147.39-19.4 146.49-21.13 145.59-22.85 143.59-22.85L143.59-22.85Q141.74-22.85 140.76-21.18 139.79-19.5 139.59-15.3L139.59-15.3 147.39-15.3ZM175.13-26.45L169.03-14.15 176.18 0 169.68 0 165.28-10.65 160.98 0 154.63 0 161.78-13.95 155.33-26.45 161.73-26.45 165.38-17.25 168.93-26.45 175.13-26.45ZM197.03-26.45L197.03 0 191.68 0 191.38-3.35Q190.13-1.3 188.58-0.28 187.03 0.75 184.98 0.75L184.98 0.75Q182.08 0.75 180.41-1.3 178.73-3.35 178.73-6.65L178.73-6.65 178.73-26.45 184.88-26.45 184.88-7Q184.88-3.9 186.98-3.9L186.98-3.9Q188.18-3.9 189.13-4.83 190.08-5.75 190.88-7.45L190.88-7.45 190.88-26.45 197.03-26.45ZM210.08-27.15Q214.78-27.15 218.03-24.05L218.03-24.05 215.68-20.7Q214.28-21.7 213.03-22.2 211.78-22.7 210.48-22.7L210.48-22.7Q209.03-22.7 208.2-21.93 207.38-21.15 207.38-19.8L207.38-19.8Q207.38-18.45 208.3-17.63 209.23-16.8 212.03-15.7L212.03-15.7Q215.48-14.35 217.13-12.5 218.78-10.65 218.78-7.55L218.78-7.55Q218.78-3.7 216.08-1.48 213.38 0.75 209.23 0.75L209.23 0.75Q206.53 0.75 204.25-0.23 201.98-1.2 200.28-2.95L200.28-2.95 203.28-6.25Q206.08-3.8 208.98-3.8L208.98-3.8Q210.63-3.8 211.58-4.67 212.53-5.55 212.53-7.1L212.53-7.1Q212.53-8.25 212.13-8.97 211.73-9.7 210.73-10.33 209.73-10.95 207.73-11.7L207.73-11.7Q204.28-13.05 202.8-14.85 201.33-16.65 201.33-19.45L201.33-19.45Q201.33-22.8 203.7-24.98 206.08-27.15 210.08-27.15L210.08-27.15Z" opacity="1" transform="matrix(1,0,0,1,0,0)" fill="#ffffff" class="wordmark-text-0" data-fill-palette-color="primary" id="text-0"></path></svg></g></svg></g></svg></g></svg></g></svg></g><defs></defs></svg><rect width="395.52" height="73.90845513413507" fill="none" stroke="none" visibility="hidden"></rect></g></svg></g></svg>